<svg width="404" height="404" viewBox="0 0 404 404" fill="none" xmlns="http://www.w3.org/2000/svg">
<g clip-path="url(#clip0_1523_71)">
<path d="M403.07 201.535C403.07 90.2303 312.84 0 201.535 0C90.2303 0 0 90.2303 0 201.535C0 312.84 90.2303 403.07 201.535 403.07C312.84 403.07 403.07 312.84 403.07 201.535Z" fill="#0000FF"/>
<path d="M304.18 118.2C284.884 109.226 262.817 108.271 242.819 115.545C222.82 122.819 206.522 137.727 197.5 157C174.73 205.83 204.22 316.74 205.5 321.44C205.673 322.092 205.986 322.698 206.418 323.216C206.85 323.734 207.39 324.152 208 324.44C208.607 324.719 209.267 324.864 209.935 324.864C210.603 324.864 211.263 324.719 211.87 324.44C216.26 322.44 319.58 275.08 343.01 224.84C351.972 205.545 352.917 183.484 345.638 163.494C338.359 143.503 323.45 127.215 304.18 118.2Z" fill="#06063F"/>
<path d="M285.32 158.66C279.202 155.804 272.375 154.827 265.702 155.852C259.029 156.876 252.81 159.857 247.831 164.417C242.852 168.977 239.338 174.912 237.732 181.469C236.127 188.027 236.502 194.913 238.811 201.258C241.12 207.602 245.258 213.119 250.703 217.111C256.148 221.103 262.654 223.39 269.399 223.684C276.144 223.977 282.825 222.264 288.596 218.76C294.367 215.256 298.969 210.12 301.82 204C305.63 195.797 306.033 186.419 302.94 177.92C299.847 169.421 293.511 162.495 285.32 158.66Z" fill="#0000FF"/>
<path d="M98.89 119.18C79.6098 128.195 64.6933 144.49 57.4136 164.49C50.1339 184.49 51.0857 206.561 60.06 225.86C82.83 274.7 186.75 323.4 191.16 325.45C191.77 325.731 192.433 325.877 193.105 325.877C193.777 325.877 194.44 325.731 195.05 325.45C195.655 325.167 196.191 324.757 196.623 324.248C197.054 323.739 197.371 323.143 197.55 322.5C198.85 317.86 228.97 208.26 205.55 158.02C196.533 138.747 180.242 123.835 160.248 116.554C140.254 109.274 118.189 110.218 98.89 119.18Z" fill="#8B8BB2"/>
<path d="M117.75 159.64C111.633 162.493 106.499 167.096 102.997 172.867C99.4958 178.638 97.7843 185.317 98.0789 192.061C98.3736 198.805 100.661 205.309 104.653 210.753C108.644 216.196 114.16 220.334 120.503 222.643C126.846 224.951 133.731 225.327 140.288 223.723C146.844 222.119 152.778 218.607 157.339 213.63C161.899 208.654 164.882 202.437 165.909 195.765C166.936 189.094 165.962 182.268 163.11 176.15C159.277 167.952 152.348 161.61 143.844 158.515C135.34 155.42 125.956 155.824 117.75 159.64Z" fill="#0000FF"/>
<path d="M201.68 96.3301C180.396 96.3539 159.99 104.82 144.94 119.87C129.89 134.92 121.424 155.326 121.4 176.61C121.4 230.49 195 318.54 198.14 322.26C198.572 322.774 199.111 323.187 199.718 323.472C200.326 323.757 200.989 323.907 201.66 323.91C202.329 323.91 202.99 323.766 203.598 323.486C204.205 323.206 204.745 322.798 205.18 322.29C208.33 318.63 282 232 282 176.61C281.979 155.318 273.508 134.905 258.449 119.853C243.39 104.801 222.972 96.3407 201.68 96.3301ZM201.68 209.23C194.93 209.23 188.331 207.228 182.718 203.478C177.106 199.728 172.731 194.397 170.148 188.161C167.565 181.925 166.889 175.062 168.206 168.442C169.523 161.821 172.773 155.74 177.546 150.967C182.32 146.193 188.401 142.943 195.022 141.626C201.642 140.309 208.505 140.985 214.741 143.568C220.977 146.151 226.308 150.526 230.058 156.138C233.808 161.751 235.81 168.35 235.81 175.1C235.799 184.149 232.2 192.824 225.802 199.222C219.404 205.62 210.729 209.219 201.68 209.23Z" fill="white"/>
<circle cx="201.5" cy="201.5" r="201.5" fill="#2E2E2E"/>
<g filter="url(#filter0_i_1523_71)">
<path d="M247.159 268.133C249.834 264.841 251.303 262.861 252.969 261.038C264.969 247.831 277.979 235.647 286.019 219.095C308.315 173.192 286.281 113.636 239.198 94.1076C190.344 73.8447 139.352 93.2158 116.23 140.837C99.6391 175.002 108.23 219.725 136.532 247.057C142.644 252.959 148.467 259.162 154.382 265.274C154.775 265.68 154.749 266.48 155.143 267.949C149.136 268.972 143.09 269.628 138.473 265.484C120.676 249.523 106.118 231.358 99.7965 207.554C88.1239 163.644 104.164 119.04 141.477 92.8223C200.023 51.68 283.58 81.3466 302.518 150.267C312.931 188.157 304.512 221.889 278.307 251.175C275.107 254.755 271.474 258.008 268.615 261.825C263.54 268.605 256.707 268.881 247.185 268.133H247.159Z" fill="url(#paint0_linear_1523_71)"/>
<path d="M201.255 284.193C165.595 283.826 130.145 281.386 95.1272 274.068C92.2812 273.478 88.2942 274.658 85.8679 276.429C75.1921 284.219 61.7491 279.314 58.8375 266.527C58.2342 263.851 55.703 261.464 53.6832 259.3C52.2274 257.74 50.0503 256.887 48.3716 255.51C36.9745 246.067 37.1319 235.129 48.9355 226.08C60.2802 217.384 73.7101 213.424 87.3105 210.119C88.8188 209.751 90.8516 211.574 92.6353 212.374C91.3894 213.883 90.4451 216.152 88.845 216.768C80.9235 219.837 72.7789 222.329 64.818 225.319C61.7753 226.46 58.9162 228.165 56.162 229.909C44.6338 237.175 44.8436 245.031 56.385 252.192C59.69 254.238 61.8409 254.172 65.0016 251.681C74.5888 244.113 87.3499 247.825 90.5238 259.589C92.0845 265.386 95.5338 266.383 100.059 267.366C129.214 273.662 158.828 276.612 188.52 276.416C217.531 276.232 246.621 274.763 275.5 271.97C296.93 269.898 318.282 265.53 338.125 256.31C342.82 254.133 347.319 251.261 351.358 248.035C355.411 244.795 356.132 240.27 353.116 235.746C350.585 231.916 348.276 229.844 343.28 233.791C333.273 241.713 319.659 235.496 317.416 222.88C317.01 220.611 314.597 218.709 313.088 216.637C312.065 215.22 311.016 213.817 309.967 212.414C311.528 211.548 313.469 209.607 314.57 210.001C319.016 211.601 321.849 209.437 325.246 207.168C334.978 200.663 347.594 206.932 350.257 219.076C350.808 221.594 352.08 224.427 353.942 226.093C365.785 236.729 365.916 248.415 352.211 256.559C341.496 262.933 329.509 267.904 317.469 271.183C279.474 281.518 240.43 283.786 201.242 284.206L201.255 284.193ZM84.058 264.022C84.0318 259.248 80.2415 255.445 75.402 255.327C70.2608 255.195 66.0902 259.143 66.3656 264.192C66.6541 269.491 69.4608 272.599 74.9561 272.77C80.2415 272.94 84.0842 269.189 84.058 264.009V264.022ZM342.637 220.821C342.571 216.112 338.584 212.165 333.837 212.125C328.761 212.073 325.076 215.614 324.997 220.611C324.905 226.014 328.591 229.673 333.981 229.529C338.991 229.398 342.702 225.66 342.637 220.807V220.821Z" fill="url(#paint1_linear_1523_71)"/>
<path d="M165.376 291.63C173.428 290.397 179.947 289.571 185.206 296.273C188.826 300.876 193.416 304.706 197.351 309.073C200.131 312.155 202.492 312.43 205.443 309.283C209.482 304.994 214.23 301.309 217.902 296.745C223.306 290.043 230.007 290.213 238.558 291.564C237.076 293.663 236.237 295.276 235.017 296.495C225.155 306.371 215.135 316.09 205.338 326.044C202.334 329.1 200.118 328.995 197.219 325.952C187.422 315.696 177.455 305.597 167.605 295.394C166.897 294.659 166.53 293.597 165.376 291.617V291.63Z" fill="url(#paint2_linear_1523_71)"/>
<path d="M201.424 125.433C231.103 124.279 256.035 150.3 255.825 179.94C255.615 209.672 230.788 234.08 201.214 234.027C171.862 233.975 146.825 209.226 146.956 180.399C147.101 149.172 170.734 125.329 201.424 125.433ZM201.66 221.791C225.083 221.673 244.192 202.341 243.943 179.009C243.694 155.887 224.742 137.329 201.306 137.25C177.659 137.185 158.734 156.11 158.878 179.678C159.035 203.325 177.908 221.909 201.66 221.791Z" fill="url(#paint3_linear_1523_71)"/>
</g>
</g>
<defs>
<filter id="filter0_i_1523_71" x="39.9512" y="74.0332" width="322.715" height="258.252" filterUnits="userSpaceOnUse" color-interpolation-filters="sRGB">
<feFlood flood-opacity="0" result="BackgroundImageFix"/>
<feBlend mode="normal" in="SourceGraphic" in2="BackgroundImageFix" result="shape"/>
<feColorMatrix in="SourceAlpha" type="matrix" values="0 0 0 0 0 0 0 0 0 0 0 0 0 0 0 0 0 0 127 0" result="hardAlpha"/>
<feOffset dy="4"/>
<feGaussianBlur stdDeviation="2"/>
<feComposite in2="hardAlpha" operator="arithmetic" k2="-1" k3="1"/>
<feColorMatrix type="matrix" values="0 0 0 0 0 0 0 0 0 0 0 0 0 0 0 0 0 0 0.25 0"/>
<feBlend mode="normal" in2="shape" result="effect1_innerShadow_1523_71"/>
</filter>
<linearGradient id="paint0_linear_1523_71" x1="201.453" y1="74.0332" x2="201.453" y2="268.717" gradientUnits="userSpaceOnUse">
<stop stop-color="#FFE88D"/>
<stop offset="0.25" stop-color="#FFE16A"/>
<stop offset="0.5" stop-color="#FFDA47"/>
<stop offset="1" stop-color="#FFCC00"/>
</linearGradient>
<linearGradient id="paint1_linear_1523_71" x1="201.309" y1="204.556" x2="201.309" y2="284.206" gradientUnits="userSpaceOnUse">
<stop stop-color="#FFE88D"/>
<stop offset="0.25" stop-color="#FFE16A"/>
<stop offset="0.5" stop-color="#FFDA47"/>
<stop offset="1" stop-color="#FFCC00"/>
</linearGradient>
<linearGradient id="paint2_linear_1523_71" x1="201.967" y1="290.789" x2="201.967" y2="328.286" gradientUnits="userSpaceOnUse">
<stop stop-color="#FFE88D"/>
<stop offset="0.25" stop-color="#FFE16A"/>
<stop offset="0.5" stop-color="#FFDA47"/>
<stop offset="1" stop-color="#FFCC00"/>
</linearGradient>
<linearGradient id="paint3_linear_1523_71" x1="201.391" y1="125.396" x2="201.391" y2="234.027" gradientUnits="userSpaceOnUse">
<stop stop-color="#FFE88D"/>
<stop offset="0.25" stop-color="#FFE16A"/>
<stop offset="0.5" stop-color="#FFDA47"/>
<stop offset="1" stop-color="#FFCC00"/>
</linearGradient>
<clipPath id="clip0_1523_71">
<rect width="403.07" height="403.07" fill="white"/>
</clipPath>
</defs>
</svg>
