<svg width="1419" height="272" viewBox="0 0 1419 272" fill="none" xmlns="http://www.w3.org/2000/svg">
<g filter="url(#filter0_i_1523_70)">
<path d="M171.585 187.932C173.67 185.366 174.815 183.823 176.113 182.402C185.466 172.109 195.606 162.613 201.871 149.713C219.248 113.938 202.076 67.5216 165.38 52.3017C127.305 36.5093 87.5636 51.6066 69.5429 88.7212C56.6127 115.348 63.3078 150.204 85.3659 171.506C90.1292 176.105 94.6676 180.94 99.2775 185.704C99.5841 186.02 99.5637 186.644 99.8703 187.789C95.1889 188.586 90.4767 189.097 86.8787 185.867C73.0081 173.427 61.6621 159.271 56.7353 140.718C47.6381 106.497 60.1391 71.7329 89.2195 51.3C134.849 19.2348 199.97 42.3561 214.73 96.0705C222.846 125.601 216.284 151.891 195.861 174.715C193.367 177.506 190.536 180.041 188.307 183.015C184.352 188.3 179.026 188.514 171.605 187.932H171.585Z" fill="url(#paint0_linear_1523_70)"/>
<path d="M135.809 200.448C108.017 200.162 80.3879 198.26 53.0963 192.557C50.8782 192.097 47.7709 193.017 45.8799 194.397C37.5595 200.468 27.0824 196.645 24.8132 186.679C24.343 184.594 22.3702 182.734 20.7961 181.047C19.6615 179.831 17.9647 179.166 16.6564 178.093C7.77381 170.734 7.89647 162.209 17.0959 155.156C25.9376 148.379 36.4045 145.292 47.0042 142.716C48.1797 142.43 49.7641 143.851 51.1542 144.475C50.1832 145.65 49.4472 147.418 48.2002 147.899C42.0263 150.291 35.6787 152.233 29.4742 154.563C27.1028 155.453 24.8745 156.781 22.728 158.141C13.7432 163.804 13.9068 169.926 22.9018 175.507C25.4776 177.102 27.1539 177.051 29.6173 175.109C37.0893 169.211 47.0349 172.103 49.5085 181.272C50.7249 185.79 53.4132 186.567 56.9396 187.334C79.6622 192.24 102.743 194.54 125.884 194.386C148.494 194.243 171.166 193.098 193.674 190.921C210.376 189.306 227.017 185.902 242.482 178.717C246.141 177.02 249.647 174.781 252.795 172.267C255.954 169.742 256.516 166.216 254.165 162.689C252.192 159.705 250.393 158.09 246.499 161.166C238.7 167.34 228.09 162.495 226.342 152.662C226.025 150.894 224.144 149.412 222.969 147.797C222.171 146.693 221.354 145.599 220.536 144.505C221.752 143.831 223.265 142.318 224.124 142.624C227.589 143.871 229.797 142.185 232.444 140.417C240.029 135.347 249.862 140.233 251.937 149.698C252.366 151.66 253.358 153.868 254.809 155.166C264.039 163.456 264.141 172.563 253.46 178.911C245.109 183.879 235.766 187.753 226.383 190.308C196.771 198.363 166.341 200.131 135.799 200.458L135.809 200.448ZM44.4693 184.727C44.4488 181.006 41.4948 178.042 37.7231 177.95C33.7162 177.848 30.4657 180.925 30.6804 184.86C30.9053 188.989 33.0927 191.412 37.3755 191.545C41.4948 191.678 44.4897 188.754 44.4693 184.717V184.727ZM245.998 151.057C245.947 147.388 242.84 144.311 239.139 144.28C235.184 144.239 232.311 146.999 232.25 150.894C232.178 155.105 235.051 157.957 239.252 157.844C243.156 157.742 246.049 154.829 245.998 151.047V151.057Z" fill="url(#paint1_linear_1523_70)"/>
<path d="M107.846 206.244C114.122 205.284 119.202 204.64 123.301 209.863C126.122 213.451 129.7 216.435 132.766 219.839C134.933 222.241 136.773 222.456 139.073 220.003C142.221 216.66 145.921 213.788 148.783 210.231C152.994 205.008 158.218 205.141 164.882 206.193C163.727 207.829 163.073 209.086 162.122 210.037C154.436 217.734 146.626 225.308 138.991 233.066C136.65 235.448 134.923 235.366 132.664 232.994C125.028 225.001 117.26 217.13 109.583 209.178C109.032 208.606 108.745 207.778 107.846 206.234V206.244Z" fill="url(#paint2_linear_1523_70)"/>
<path d="M135.941 76.7163C159.072 75.8168 178.503 96.0964 178.34 119.197C178.176 142.369 158.827 161.392 135.777 161.351C112.901 161.31 93.3883 142.022 93.4905 119.555C93.6029 95.2174 112.022 76.6346 135.941 76.7163ZM136.125 151.814C154.38 151.722 169.273 136.656 169.079 118.471C168.885 100.451 154.115 85.9873 135.849 85.926C117.419 85.8748 102.669 100.625 102.782 118.993C102.905 137.422 117.613 151.906 136.125 151.814Z" fill="url(#paint3_linear_1523_70)"/>
</g>
<path d="M324.054 100.727V204H302.572V100.727H324.054ZM376.56 205.513C368.593 205.513 361.735 203.899 355.986 200.672C350.271 197.411 345.867 192.805 342.775 186.855C339.682 180.871 338.135 173.795 338.135 165.626C338.135 157.658 339.682 150.666 342.775 144.648C345.867 138.631 350.221 133.941 355.835 130.58C361.483 127.218 368.105 125.537 375.703 125.537C380.813 125.537 385.57 126.361 389.974 128.008C394.411 129.621 398.277 132.059 401.572 135.32C404.9 138.58 407.488 142.682 409.337 147.624C411.186 152.532 412.111 158.28 412.111 164.869V170.769H346.708V157.457H391.89C391.89 154.364 391.217 151.624 389.873 149.237C388.528 146.85 386.662 144.985 384.275 143.64C381.922 142.262 379.182 141.572 376.056 141.572C372.795 141.572 369.904 142.329 367.383 143.842C364.895 145.321 362.945 147.321 361.533 149.842C360.121 152.33 359.398 155.103 359.365 158.163V170.82C359.365 174.652 360.071 177.963 361.483 180.754C362.928 183.544 364.962 185.695 367.584 187.208C370.206 188.721 373.316 189.477 376.913 189.477C379.3 189.477 381.485 189.141 383.469 188.469C385.452 187.796 387.15 186.788 388.562 185.443C389.974 184.098 391.049 182.451 391.789 180.501L411.657 181.812C410.648 186.586 408.581 190.755 405.454 194.318C402.362 197.848 398.361 200.605 393.453 202.588C388.578 204.538 382.948 205.513 376.56 205.513ZM500.192 126.545V142.682H453.548V126.545H500.192ZM464.138 107.989H485.619V180.199C485.619 182.182 485.922 183.729 486.527 184.838C487.132 185.914 487.973 186.67 489.048 187.107C490.158 187.544 491.435 187.763 492.881 187.763C493.889 187.763 494.898 187.679 495.906 187.511C496.915 187.309 497.688 187.158 498.226 187.057L501.604 203.042C500.529 203.378 499.016 203.765 497.066 204.202C495.116 204.672 492.746 204.958 489.956 205.059C484.779 205.261 480.241 204.571 476.341 202.991C472.475 201.411 469.466 198.957 467.315 195.629C465.163 192.301 464.104 188.099 464.138 183.023V107.989ZM514.186 204V126.545H535.012V140.06H535.819C537.23 135.252 539.6 131.622 542.929 129.168C546.257 126.68 550.089 125.436 554.426 125.436C555.502 125.436 556.661 125.503 557.905 125.638C559.149 125.772 560.242 125.957 561.183 126.192V145.254C560.174 144.951 558.779 144.682 556.998 144.447C555.216 144.211 553.585 144.094 552.106 144.094C548.946 144.094 546.122 144.783 543.635 146.161C541.181 147.506 539.231 149.388 537.785 151.809C536.373 154.229 535.667 157.02 535.667 160.18V204H514.186ZM592.157 205.462C587.215 205.462 582.811 204.605 578.945 202.891C575.079 201.143 572.02 198.571 569.768 195.175C567.549 191.746 566.44 187.477 566.44 182.367C566.44 178.064 567.23 174.45 568.81 171.526C570.39 168.601 572.541 166.248 575.264 164.466C577.987 162.684 581.08 161.339 584.543 160.432C588.039 159.524 591.703 158.885 595.536 158.516C600.04 158.045 603.671 157.608 606.428 157.205C609.184 156.768 611.185 156.129 612.428 155.288C613.672 154.448 614.294 153.204 614.294 151.557V151.254C614.294 148.061 613.286 145.59 611.269 143.842C609.285 142.094 606.461 141.219 602.797 141.219C598.931 141.219 595.855 142.077 593.569 143.791C591.283 145.472 589.77 147.59 589.031 150.145L569.163 148.531C570.171 143.825 572.155 139.757 575.113 136.328C578.071 132.866 581.887 130.21 586.56 128.361C591.266 126.478 596.712 125.537 602.898 125.537C607.201 125.537 611.319 126.041 615.252 127.05C619.219 128.058 622.732 129.621 625.791 131.739C628.884 133.857 631.321 136.58 633.103 139.908C634.885 143.203 635.776 147.153 635.776 151.759V204H615.404V193.259H614.798C613.555 195.68 611.891 197.814 609.806 199.663C607.722 201.479 605.218 202.907 602.293 203.95C599.368 204.958 595.99 205.462 592.157 205.462ZM598.309 190.637C601.469 190.637 604.259 190.015 606.68 188.771C609.1 187.494 611 185.779 612.378 183.628C613.756 181.476 614.445 179.039 614.445 176.316V168.097C613.773 168.534 612.849 168.937 611.672 169.307C610.529 169.643 609.235 169.962 607.789 170.265C606.344 170.534 604.898 170.786 603.453 171.021C602.007 171.223 600.696 171.408 599.519 171.576C596.998 171.946 594.796 172.534 592.914 173.341C591.031 174.148 589.569 175.24 588.526 176.619C587.484 177.963 586.963 179.644 586.963 181.661C586.963 184.586 588.022 186.821 590.14 188.368C592.292 189.881 595.015 190.637 598.309 190.637ZM721.878 126.545L694.8 204H670.595L643.516 126.545H666.208L682.294 181.964H683.101L699.136 126.545H721.878ZM765.673 205.513C757.706 205.513 750.848 203.899 745.1 200.672C739.385 197.411 734.981 192.805 731.888 186.855C728.795 180.871 727.249 173.795 727.249 165.626C727.249 157.658 728.795 150.666 731.888 144.648C734.981 138.631 739.334 133.941 744.948 130.58C750.596 127.218 757.219 125.537 764.816 125.537C769.926 125.537 774.683 126.361 779.087 128.008C783.524 129.621 787.39 132.059 790.685 135.32C794.013 138.58 796.602 142.682 798.45 147.624C800.299 152.532 801.224 158.28 801.224 164.869V170.769H735.821V157.457H781.003C781.003 154.364 780.331 151.624 778.986 149.237C777.641 146.85 775.776 144.985 773.389 143.64C771.035 142.262 768.296 141.572 765.169 141.572C761.908 141.572 759.017 142.329 756.496 143.842C754.008 145.321 752.058 147.321 750.646 149.842C749.235 152.33 748.512 155.103 748.478 158.163V170.82C748.478 174.652 749.184 177.963 750.596 180.754C752.042 183.544 754.075 185.695 756.698 187.208C759.32 188.721 762.429 189.477 766.026 189.477C768.413 189.477 770.598 189.141 772.582 188.469C774.565 187.796 776.263 186.788 777.675 185.443C779.087 184.098 780.163 182.451 780.902 180.501L800.77 181.812C799.762 186.586 797.694 190.755 794.568 194.318C791.475 197.848 787.474 200.605 782.566 202.588C777.692 204.538 772.061 205.513 765.673 205.513ZM836.724 100.727V204H815.242V100.727H836.724Z" fill="white"/>
<path d="M877.892 201V123.545H889.793V201H877.892ZM883.943 110.636C881.624 110.636 879.623 109.846 877.942 108.266C876.295 106.686 875.472 104.787 875.472 102.568C875.472 100.349 876.295 98.45 877.942 96.87C879.623 95.29 881.624 94.5 883.943 94.5C886.263 94.5 888.246 95.29 889.893 96.87C891.574 98.45 892.415 100.349 892.415 102.568C892.415 104.787 891.574 106.686 889.893 108.266C888.246 109.846 886.263 110.636 883.943 110.636ZM945.274 123.545V133.631H905.135V123.545H945.274ZM916.834 104.989H928.734V178.812C928.734 182.174 929.222 184.696 930.197 186.376C931.205 188.024 932.483 189.133 934.029 189.705C935.609 190.242 937.273 190.511 939.021 190.511C940.332 190.511 941.408 190.444 942.248 190.31C943.089 190.142 943.761 190.007 944.265 189.906L946.686 200.597C945.879 200.899 944.753 201.202 943.307 201.504C941.862 201.84 940.03 202.009 937.811 202.009C934.449 202.009 931.155 201.286 927.927 199.84C924.734 198.395 922.078 196.193 919.96 193.234C917.876 190.276 916.834 186.545 916.834 182.04V104.989ZM963.175 201V123.545H975.076V201H963.175ZM969.226 110.636C966.907 110.636 964.907 109.846 963.226 108.266C961.578 106.686 960.755 104.787 960.755 102.568C960.755 100.349 961.578 98.45 963.226 96.87C964.907 95.29 966.907 94.5 969.226 94.5C971.546 94.5 973.529 95.29 975.177 96.87C976.858 98.45 977.698 100.349 977.698 102.568C977.698 104.787 976.858 106.686 975.177 108.266C973.529 109.846 971.546 110.636 969.226 110.636ZM1008.77 154.406V201H996.873V123.545H1008.37V135.648H1009.38C1011.19 131.714 1013.95 128.554 1017.65 126.168C1021.35 123.747 1026.12 122.537 1031.97 122.537C1037.21 122.537 1041.8 123.613 1045.74 125.764C1049.67 127.882 1052.73 131.109 1054.91 135.446C1057.1 139.749 1058.19 145.195 1058.19 151.784V201H1046.29V152.591C1046.29 146.506 1044.71 141.766 1041.55 138.371C1038.39 134.942 1034.05 133.227 1028.54 133.227C1024.74 133.227 1021.35 134.051 1018.35 135.698C1015.4 137.345 1013.06 139.749 1011.34 142.909C1009.63 146.069 1008.77 149.902 1008.77 154.406ZM1112.41 202.614C1104.95 202.614 1098.51 200.966 1093.1 197.672C1087.72 194.344 1083.57 189.705 1080.64 183.754C1077.75 177.77 1076.31 170.812 1076.31 162.878C1076.31 154.944 1077.75 147.952 1080.64 141.901C1083.57 135.816 1087.64 131.076 1092.85 127.68C1098.09 124.251 1104.21 122.537 1111.2 122.537C1115.24 122.537 1119.22 123.209 1123.15 124.554C1127.09 125.899 1130.67 128.084 1133.89 131.109C1137.12 134.101 1139.69 138.068 1141.61 143.01C1143.52 147.952 1144.48 154.036 1144.48 161.264V166.307H1084.78V156.02H1132.38C1132.38 151.65 1131.51 147.75 1129.76 144.321C1128.04 140.892 1125.59 138.186 1122.4 136.202C1119.24 134.219 1115.5 133.227 1111.2 133.227C1106.46 133.227 1102.36 134.404 1098.9 136.757C1095.47 139.077 1092.83 142.102 1090.98 145.834C1089.13 149.565 1088.21 153.566 1088.21 157.835V164.693C1088.21 170.543 1089.22 175.501 1091.23 179.569C1093.28 183.603 1096.12 186.679 1099.75 188.797C1103.39 190.881 1107.6 191.923 1112.41 191.923C1115.54 191.923 1118.36 191.486 1120.88 190.612C1123.44 189.705 1125.64 188.36 1127.49 186.578C1129.34 184.763 1130.77 182.51 1131.78 179.821L1143.27 183.048C1142.06 186.948 1140.03 190.377 1137.17 193.335C1134.31 196.26 1130.78 198.546 1126.58 200.193C1122.38 201.807 1117.66 202.614 1112.41 202.614ZM1162.59 201V123.545H1174.08V135.244H1174.89C1176.3 131.412 1178.86 128.302 1182.55 125.915C1186.25 123.529 1190.42 122.335 1195.06 122.335C1195.93 122.335 1197.03 122.352 1198.34 122.386C1199.65 122.419 1200.64 122.47 1201.31 122.537V134.639C1200.91 134.538 1199.98 134.387 1198.54 134.185C1197.13 133.95 1195.63 133.832 1194.05 133.832C1190.29 133.832 1186.92 134.622 1183.97 136.202C1181.04 137.749 1178.72 139.9 1177.01 142.657C1175.33 145.38 1174.49 148.49 1174.49 151.986V201H1162.59ZM1238.21 202.815C1233.3 202.815 1228.85 201.891 1224.85 200.042C1220.85 198.159 1217.67 195.453 1215.32 191.923C1212.97 188.36 1211.79 184.057 1211.79 179.014C1211.79 174.577 1212.66 170.98 1214.41 168.223C1216.16 165.433 1218.5 163.248 1221.42 161.668C1224.34 160.088 1227.57 158.911 1231.1 158.138C1234.67 157.331 1238.25 156.692 1241.84 156.222C1246.55 155.616 1250.36 155.163 1253.29 154.86C1256.25 154.524 1258.4 153.969 1259.74 153.196C1261.12 152.423 1261.81 151.078 1261.81 149.162V148.759C1261.81 143.783 1260.45 139.917 1257.73 137.161C1255.04 134.404 1250.95 133.026 1245.47 133.026C1239.79 133.026 1235.34 134.269 1232.11 136.757C1228.88 139.245 1226.61 141.901 1225.3 144.724L1214.01 140.69C1216.02 135.984 1218.71 132.32 1222.08 129.697C1225.47 127.042 1229.17 125.193 1233.17 124.151C1237.2 123.075 1241.17 122.537 1245.07 122.537C1247.56 122.537 1250.42 122.839 1253.64 123.445C1256.9 124.016 1260.05 125.21 1263.07 127.025C1266.13 128.84 1268.67 131.58 1270.69 135.244C1272.7 138.909 1273.71 143.817 1273.71 149.969V201H1261.81V190.511H1261.21C1260.4 192.192 1259.05 193.991 1257.17 195.907C1255.29 197.823 1252.79 199.454 1249.66 200.798C1246.53 202.143 1242.72 202.815 1238.21 202.815ZM1240.03 192.125C1244.73 192.125 1248.7 191.201 1251.93 189.352C1255.19 187.503 1257.64 185.116 1259.29 182.191C1260.97 179.266 1261.81 176.19 1261.81 172.963V162.071C1261.31 162.676 1260.2 163.231 1258.48 163.735C1256.8 164.206 1254.85 164.626 1252.63 164.996C1250.45 165.332 1248.31 165.634 1246.23 165.903C1244.18 166.139 1242.52 166.34 1241.24 166.509C1238.14 166.912 1235.25 167.567 1232.56 168.475C1229.91 169.349 1227.76 170.677 1226.11 172.459C1224.5 174.207 1223.69 176.594 1223.69 179.619C1223.69 183.754 1225.22 186.881 1228.28 188.999C1231.37 191.083 1235.29 192.125 1240.03 192.125ZM1295.43 201V123.545H1306.93V135.244H1307.74C1309.15 131.412 1311.7 128.302 1315.4 125.915C1319.1 123.529 1323.27 122.335 1327.91 122.335C1328.78 122.335 1329.87 122.352 1331.19 122.386C1332.5 122.419 1333.49 122.47 1334.16 122.537V134.639C1333.76 134.538 1332.83 134.387 1331.39 134.185C1329.97 133.95 1328.48 133.832 1326.9 133.832C1323.13 133.832 1319.77 134.622 1316.81 136.202C1313.89 137.749 1311.57 139.9 1309.85 142.657C1308.17 145.38 1307.33 148.49 1307.33 151.986V201H1295.43ZM1358.29 230.045C1356.27 230.045 1354.47 229.877 1352.89 229.541C1351.31 229.239 1350.22 228.936 1349.62 228.634L1352.64 218.145C1355.53 218.884 1358.09 219.153 1360.31 218.952C1362.53 218.75 1364.49 217.758 1366.21 215.977C1367.95 214.228 1369.55 211.388 1371 207.455L1373.22 201.403L1344.57 123.545H1357.48L1378.86 185.267H1379.67L1401.05 123.545H1413.96L1381.08 212.295C1379.6 216.296 1377.77 219.607 1375.59 222.229C1373.4 224.885 1370.86 226.852 1367.97 228.129C1365.11 229.407 1361.89 230.045 1358.29 230.045Z" fill="#FED11D"/>
<defs>
<filter id="filter0_i_1523_70" x="10.0938" y="36.6562" width="251.515" height="202.156" filterUnits="userSpaceOnUse" color-interpolation-filters="sRGB">
<feFlood flood-opacity="0" result="BackgroundImageFix"/>
<feBlend mode="normal" in="SourceGraphic" in2="BackgroundImageFix" result="shape"/>
<feColorMatrix in="SourceAlpha" type="matrix" values="0 0 0 0 0 0 0 0 0 0 0 0 0 0 0 0 0 0 127 0" result="hardAlpha"/>
<feOffset dy="4"/>
<feGaussianBlur stdDeviation="2"/>
<feComposite in2="hardAlpha" operator="arithmetic" k2="-1" k3="1"/>
<feColorMatrix type="matrix" values="0 0 0 0 0 0 0 0 0 0 0 0 0 0 0 0 0 0 0.25 0"/>
<feBlend mode="normal" in2="shape" result="effect1_innerShadow_1523_70"/>
</filter>
<linearGradient id="paint0_linear_1523_70" x1="135.963" y1="36.6562" x2="135.963" y2="188.387" gradientUnits="userSpaceOnUse">
<stop stop-color="#FFE88D"/>
<stop offset="0.25" stop-color="#FFE16A"/>
<stop offset="0.5" stop-color="#FFDA47"/>
<stop offset="1" stop-color="#FFCC00"/>
</linearGradient>
<linearGradient id="paint1_linear_1523_70" x1="135.851" y1="138.381" x2="135.851" y2="200.458" gradientUnits="userSpaceOnUse">
<stop stop-color="#FFE88D"/>
<stop offset="0.25" stop-color="#FFE16A"/>
<stop offset="0.5" stop-color="#FFDA47"/>
<stop offset="1" stop-color="#FFCC00"/>
</linearGradient>
<linearGradient id="paint2_linear_1523_70" x1="136.364" y1="205.589" x2="136.364" y2="234.813" gradientUnits="userSpaceOnUse">
<stop stop-color="#FFE88D"/>
<stop offset="0.25" stop-color="#FFE16A"/>
<stop offset="0.5" stop-color="#FFDA47"/>
<stop offset="1" stop-color="#FFCC00"/>
</linearGradient>
<linearGradient id="paint3_linear_1523_70" x1="135.915" y1="76.6875" x2="135.915" y2="161.351" gradientUnits="userSpaceOnUse">
<stop stop-color="#FFE88D"/>
<stop offset="0.25" stop-color="#FFE16A"/>
<stop offset="0.5" stop-color="#FFDA47"/>
<stop offset="1" stop-color="#FFCC00"/>
</linearGradient>
</defs>
</svg>
